<?xml version="1.0" encoding="utf-8"?>
<!-- Generator: Adobe Illustrator 23.1.1, SVG Export Plug-In . SVG Version: 6.00 Build 0)  -->
<svg version="1.1" id="Слой_1" xmlns="http://www.w3.org/2000/svg" xmlns:xlink="http://www.w3.org/1999/xlink" x="0px" y="0px"
	 viewBox="0 0 14 14" style="enable-background:new 0 0 14 14;" xml:space="preserve">
<style type="text/css">
	.st0{fill-rule:evenodd;clip-rule:evenodd;fill:#F6533D;}
</style>
<path class="st0" d="M3.3,2.4c-0.3-0.3-0.7-0.3-1,0c-0.3,0.3-0.3,0.7,0,1L6,7l-3.7,3.7c-0.3,0.3-0.3,0.7,0,1c0.3,0.3,0.7,0.3,1,0
	L7,8l3.7,3.7c0.3,0.3,0.7,0.3,1,0c0.3-0.3,0.3-0.7,0-1L8,7l3.7-3.7c0.3-0.3,0.3-0.7,0-1c-0.3-0.3-0.7-0.3-1,0L7,6L3.3,2.4z"/>
</svg>
