<svg width="14" height="14" viewBox="0 0 14 14" fill="none" xmlns="http://www.w3.org/2000/svg">
<path d="M12.9994 5.20602C12.9841 4.49109 12.6929 3.819 12.1793 3.31363C11.6659 2.80826 10.9893 2.52774 10.2742 2.52353C10.153 2.52271 10.0319 2.53003 9.91202 2.54514C9.26154 1.5842 8.17489 1 6.99999 1C5.825 1 4.73835 1.5842 4.08796 2.54514C3.99247 2.53305 3.89624 2.526 3.79984 2.52399C3.06705 2.50897 2.36969 2.78702 1.8352 3.3075C1.30099 3.82761 1.00435 4.51709 1.00005 5.24887C0.992634 6.4798 1.81487 7.55289 2.96872 7.89465V11.5938C2.96872 12.3692 3.59952 13 4.37498 13H9.74219C10.5176 13 11.1484 12.3692 11.1484 11.5938C11.1484 11.3348 10.9385 11.125 10.6797 11.125C10.4208 11.125 10.2109 11.3348 10.2109 11.5938C10.2109 11.8522 10.0006 12.0625 9.74219 12.0625H4.37498C4.11652 12.0625 3.90622 11.8522 3.90622 11.5938V9.69531H8.28978C8.54869 9.69531 8.75853 9.48547 8.75853 9.22656C8.75853 8.96765 8.54869 8.75781 8.28978 8.75781H3.90622V7.51746C3.90622 7.28336 3.73337 7.08514 3.50138 7.0531C2.60443 6.9296 1.93206 6.15634 1.93746 5.25446C1.94039 4.77573 2.13623 4.32281 2.48916 3.97922C2.84238 3.63525 3.30133 3.4516 3.78034 3.4613C3.92261 3.46423 4.06397 3.48392 4.20066 3.51971C4.40949 3.57428 4.62858 3.47925 4.73148 3.28946C5.1833 2.4556 6.05251 1.9375 6.99999 1.9375C7.76849 1.9375 8.48553 2.27844 8.97012 2.85229C8.10568 3.31116 7.51562 4.22064 7.51562 5.26562C7.51562 5.52454 7.72546 5.73438 7.98437 5.73438C8.24328 5.73438 8.45312 5.52454 8.45312 5.26562C8.45312 4.27695 9.25742 3.47266 10.2461 3.47266C10.2783 3.47266 10.3097 3.46936 10.3401 3.46323C11.2762 3.50635 12.042 4.28244 12.0621 5.22598C12.081 6.11331 11.4632 6.87585 10.5932 7.03918C10.3715 7.08075 10.2109 7.27429 10.2109 7.49979V9.22656C10.2109 9.48547 10.4208 9.69531 10.6797 9.69531C10.9385 9.69531 11.1484 9.48547 11.1484 9.22656V7.8595C11.6258 7.69534 12.0531 7.40018 12.3776 7.00522C12.7925 6.50021 13.0133 5.86118 12.9994 5.20602Z" fill="#E9B042" stroke="#E9B042" stroke-width="0.5"/>
</svg>
