<svg width="18" height="14" viewBox="0 0 18 14" fill="none" xmlns="http://www.w3.org/2000/svg">
<path d="M16.375 11.6667H15.75V11.0333C15.75 10.5263 15.7002 10.0198 15.6021 9.52786C15.5386 9.20951 15.2717 8.99349 14.9774 9.00052C14.9745 9.00052 14.9717 9 14.9688 9H6.67411C6.32889 9 6.04911 9.29844 6.04911 9.66667C6.04911 10.0349 6.32889 10.3333 6.67411 10.3333H14.4607C14.4866 10.5651 14.5 10.7991 14.5 11.0333V11.6667H3.5V10.8667C3.5 7.63177 5.96729 5 9 5C10.6288 5 12.1644 5.7638 13.2133 7.09557C13.4353 7.37734 13.8296 7.41406 14.0939 7.17708C14.3582 6.94036 14.3925 6.51979 14.1704 6.23789C13.0253 4.78398 11.4071 3.88242 9.65625 3.70117V3.12383C9.93945 2.91302 10.125 2.56302 10.125 2.16667C10.125 1.5224 9.63525 1 9.03125 1C8.42725 1 7.9375 1.5224 7.9375 2.16667C7.9375 2.56302 8.12305 2.91302 8.40625 3.12383V3.66667H1.625C1.27979 3.66667 1 3.9651 1 4.33333C1 4.70156 1.27979 5 1.625 5H5.08472C4.78223 5.23073 4.49524 5.48945 4.22705 5.77552C4.05969 5.95391 3.90259 6.14023 3.75537 6.33333H1.625C1.27979 6.33333 1 6.63177 1 7C1 7.36823 1.27979 7.66667 1.625 7.66667H2.94983C2.75122 8.09284 2.59351 8.53906 2.47827 9H1.625C1.27979 9 1 9.29844 1 9.66667C1 10.0349 1.27979 10.3333 1.625 10.3333H2.26819C2.2561 10.51 2.25 10.6879 2.25 10.8667V11.6667H1.625C1.27979 11.6667 1 11.9651 1 12.3333C1 12.7016 1.27979 13 1.625 13C8.67247 13 10.5424 13 16.375 13C16.7202 13 17 12.7016 17 12.3333C17 11.9651 16.7202 11.6667 16.375 11.6667Z" fill="#4EBBBB" stroke="#4EBBBB" stroke-width="0.3"/>
</svg>
