<svg width="135" height="34" viewBox="0 0 135 34" fill="none" xmlns="http://www.w3.org/2000/svg">
<g clip-path="url(#clip0)">
<path d="M26.8405 5.91304C26.8405 5.91304 23.3643 -1.98997 40.4031 0.511703C39.2634 8.07358 31.0004 11.3144 26.8405 5.91304Z" fill="#AFCB08"/>
<path d="M14.1897 0.113709C21.1989 0.966552 26.2137 7.05016 25.4159 13.6455C25.3019 14.5552 25.074 15.408 24.7891 16.2609C24.1622 10.7458 19.6033 6.14047 13.5628 5.40133C7.4653 4.6622 20.1732 25.0736 18.2357 30.3043C18.1787 29.3946 -0.455761 14.3278 0.000128035 10.5752C0.456017 6.82274 7.18037 -0.739134 14.1897 0.113709ZM35.5024 13.4749C39.1496 15.5786 38.5797 21.1505 37.326 23.9933C36.0723 26.8361 14.7595 33.7157 14.4176 34C38.1808 21.6053 35.1605 17.2843 34.0208 15.9766C32.8811 14.7257 27.1825 14.4983 25.017 16.602C25.131 16.1472 25.3589 15.6923 25.5869 15.2943C27.4104 12.1672 31.8553 11.3712 35.5024 13.4749Z" fill="white"/>
<path d="M52.1992 17.0569L51.6864 22.9699C51.6864 23.311 51.8003 23.4816 52.0853 23.4816H53.225C53.6239 23.4816 53.7949 23.311 53.7949 23.0268L54.9346 10.5184C54.9346 10.1773 54.8206 10.0635 54.5927 10.0635H53.282C52.9971 10.0635 52.8261 10.2341 52.8261 10.5184L52.3702 15.4649H46.5006L46.9565 10.5184C46.9565 10.1773 46.7856 10.0635 46.5006 10.0635H45.3609C45.019 10.0635 44.848 10.2341 44.848 10.5753L43.7083 23.0268C43.6513 23.3679 43.8223 23.4816 44.1072 23.4816H45.3039C45.6458 23.4816 45.8168 23.311 45.8168 23.0268L46.3867 17.0569H52.1992Z" fill="#AFCB08"/>
<path d="M65.705 17.3411C64.7932 19.6154 63.7674 21.3211 62.6277 22.4013C61.6589 23.311 60.5762 23.8227 59.4935 23.8227C58.5247 23.8227 57.7839 23.3679 57.328 22.5151C56.9291 21.7759 56.7011 20.8662 56.7011 19.786C56.7011 19.4448 56.7011 19.2174 56.7011 19.0468C56.9291 16.602 57.5559 14.5552 58.6387 12.8495C59.9494 10.8027 61.6589 9.77927 63.8244 9.77927C64.2803 9.77927 64.7362 9.83612 65.1921 10.0067C65.648 10.1204 66.0469 10.3478 66.5028 10.5753C66.5597 10.2341 66.6737 10.1204 66.9586 10.1204H67.9274C68.2123 10.1204 68.3833 10.291 68.3833 10.5753L67.2436 23.0268C67.2436 23.3679 67.0726 23.4816 66.7307 23.4816H65.591C65.3061 23.4816 65.1921 23.311 65.1921 23.0268L65.705 17.3411ZM66.3888 11.7692C65.705 11.3712 64.9641 11.1438 64.1663 11.1438C62.4567 11.1438 61.0891 12.0535 60.1773 13.8161C59.4935 15.1237 59.0376 16.8294 58.8666 18.9331C58.8666 19.0468 58.8666 19.2174 58.8666 19.4448C58.8666 20.0702 58.9806 20.6388 59.1516 21.1505C59.3795 21.6622 59.6644 21.8896 60.1203 21.8896C60.7472 21.8896 61.374 21.5485 61.9439 20.8662C62.1718 20.5819 62.6277 20.0134 63.1976 19.0468C64.0524 17.7391 64.6792 16.5452 65.1921 15.5217C65.7619 14.3278 66.2178 13.0201 66.3888 11.7692Z" fill="#AFCB08"/>
<path d="M72.7142 16.6589C73.2271 15.0669 73.9679 13.6455 74.9937 12.3378C76.2474 10.6321 77.5581 9.77927 78.9257 9.77927C79.8375 9.77927 80.4643 10.1773 80.7493 11.0301C80.9202 11.5418 81.0342 12.3378 81.0342 13.4749L80.1794 23.0268C80.1794 23.3679 80.0085 23.4816 79.6665 23.4816H78.5268C78.2419 23.4816 78.0709 23.311 78.0709 23.0268L78.9257 13.7023V13.3043C78.9257 12.9064 78.9257 12.6789 78.9257 12.6221C78.8687 12.1672 78.5838 11.9398 78.2419 11.9398C77.615 11.9398 76.9312 12.3947 76.1904 13.3043C75.9055 13.7023 75.3926 14.3846 74.7088 15.5217C73.797 16.9431 73.1701 18.194 72.8282 19.1605C72.4293 20.3545 72.2014 21.6622 72.2014 23.0836C72.2014 23.4248 72.0304 23.5953 71.6315 23.5953H70.5488C70.2638 23.5953 70.0929 23.4248 70.0929 23.0836L71.2326 10.6321C71.2326 10.291 71.4036 10.1204 71.8025 10.1204H72.8852C73.1701 10.1204 73.3411 10.291 73.3411 10.6321L72.7142 16.6589Z" fill="white"/>
<path d="M91.9185 17.3411C91.0068 19.6154 89.981 21.3211 88.8413 22.4013C87.8725 23.311 86.7898 23.8227 85.7071 23.8227C84.7383 23.8227 83.9975 23.3679 83.5416 22.5151C83.1427 21.7759 82.9147 20.8662 82.9147 19.786C82.9147 19.4448 82.9147 19.2174 82.9147 19.0468C83.1427 16.602 83.7695 14.5552 84.8523 12.8495C86.1629 10.8027 87.8725 9.77927 90.038 9.77927C90.4939 9.77927 90.9498 9.83612 91.4057 10.0067C91.8616 10.1204 92.2605 10.3478 92.7163 10.5753C92.7733 10.2341 92.8873 10.1204 93.1722 10.1204H94.141C94.4259 10.1204 94.5969 10.291 94.5969 10.5753L93.4572 23.0268C93.4572 23.3679 93.2862 23.4816 92.9443 23.4816H91.8046C91.5196 23.4816 91.4057 23.311 91.4057 23.0268L91.9185 17.3411ZM92.6024 11.7692C91.9185 11.3712 91.1777 11.1438 90.3799 11.1438C88.6703 11.1438 87.3027 12.0535 86.3909 13.8161C85.7071 15.1237 85.2512 16.8294 85.0802 18.9331C85.0802 19.0468 85.0802 19.2174 85.0802 19.4448C85.0802 20.0702 85.1942 20.6388 85.3651 21.1505C85.5931 21.6622 85.878 21.8896 86.3339 21.8896C86.9608 21.8896 87.5876 21.5485 88.1575 20.8662C88.3854 20.5819 88.8413 20.0134 89.4111 19.0468C90.2659 17.7391 90.8928 16.5452 91.4057 15.5217C91.9755 14.3278 92.4314 13.0201 92.6024 11.7692Z" fill="white"/>
<path d="M99.2128 16.3746C99.7826 14.7258 100.523 13.3043 101.492 12.1672C102.746 10.5753 104 9.77927 105.367 9.77927C106.393 9.77927 107.134 10.1773 107.647 11.0301C108.046 11.7124 108.274 12.5652 108.274 13.7023V14.1572C108.274 14.2709 108.274 14.3278 108.274 14.3846C108.046 16.9431 107.362 19.0468 106.336 20.7525C105.025 22.7993 103.316 23.8227 101.15 23.8227C100.694 23.8227 100.295 23.7659 99.8396 23.6522C99.3837 23.5385 99.0418 23.3679 98.6999 23.1405L98.244 28.5987C98.244 28.9398 98.073 29.0535 97.6741 29.0535H96.5914C96.3065 29.0535 96.1355 28.8829 96.1355 28.5987L97.7311 10.5184C97.7311 10.1773 97.9021 10.0635 98.301 10.0635H99.3837C99.6686 10.0635 99.8396 10.2341 99.8396 10.5184L99.2128 16.3746ZM98.6999 21.9465C99.3837 22.2308 100.068 22.4013 100.751 22.4013C102.518 22.4013 103.829 21.4348 104.74 19.5585C105.367 18.194 105.823 16.4883 105.994 14.2709C105.994 14.1572 105.994 14.0435 105.994 13.9298C105.994 13.8161 105.994 13.7023 105.994 13.6455C105.994 13.0201 105.937 12.5652 105.766 12.2241C105.538 11.7692 105.253 11.5987 104.797 11.5987C104.114 11.5987 103.373 12.1672 102.518 13.2475C102.119 13.7592 101.549 14.612 100.865 15.7492C100.295 16.7726 99.7826 17.796 99.4407 18.7625C99.0988 19.786 98.8139 20.8094 98.6999 21.9465Z" fill="white"/>
<path d="M119.158 17.3411C118.246 19.6154 117.22 21.3211 116.081 22.4013C115.112 23.311 114.029 23.8227 112.946 23.8227C111.978 23.8227 111.237 23.3679 110.781 22.5151C110.382 21.7759 110.154 20.8662 110.154 19.786C110.154 19.4448 110.154 19.2174 110.154 19.0468C110.382 16.602 111.009 14.5552 112.092 12.8495C113.402 10.8027 115.112 9.77927 117.277 9.77927C117.733 9.77927 118.189 9.83612 118.645 10.0067C119.101 10.1204 119.5 10.3478 119.956 10.5753C120.013 10.2341 120.127 10.1204 120.412 10.1204H121.38C121.665 10.1204 121.836 10.291 121.836 10.5753L120.697 23.0268C120.697 23.3679 120.526 23.4816 120.184 23.4816H119.044C118.759 23.4816 118.645 23.311 118.645 23.0268L119.158 17.3411ZM119.842 11.7692C119.158 11.3712 118.417 11.1438 117.619 11.1438C115.91 11.1438 114.542 12.0535 113.63 13.8161C112.946 15.1237 112.491 16.8294 112.32 18.9331C112.32 19.0468 112.32 19.2174 112.32 19.4448C112.32 20.0702 112.434 20.6388 112.604 21.1505C112.832 21.6622 113.117 21.8896 113.573 21.8896C114.2 21.8896 114.827 21.5485 115.397 20.8662C115.625 20.5819 116.081 20.0134 116.65 19.0468C117.505 17.7391 118.132 16.5452 118.645 15.5217C119.215 14.3278 119.671 13.0201 119.842 11.7692Z" fill="white"/>
<path d="M130.042 16.3746L133.746 22.6856C133.917 22.913 133.974 23.0836 133.974 23.1973C133.974 23.3679 133.86 23.4816 133.632 23.4816H132.037C131.866 23.4816 131.695 23.3679 131.581 23.1973L128.618 17.796L124.515 23.1973C124.401 23.3679 124.23 23.4247 124.002 23.4247H122.577C122.349 23.4247 122.292 23.3679 122.292 23.1973C122.292 23.0836 122.292 23.0268 122.349 22.9699C122.406 22.913 122.463 22.7993 122.577 22.6856L127.82 16.3177L124.287 10.5752L124.173 10.291C124.173 10.0635 124.344 9.94983 124.629 9.94983H126.224C126.452 9.94983 126.566 10.0067 126.68 10.1204C126.737 10.2341 126.851 10.3478 126.908 10.4615L129.187 14.612L132.664 10.3478C132.892 10.0635 133.176 9.89297 133.461 9.89297H134.658C134.886 9.89297 135 9.94983 135 10.1204C135 10.1773 135 10.291 134.943 10.3478C134.886 10.4047 134.829 10.5184 134.772 10.5752L130.042 16.3746Z" fill="white"/>
</g>
<defs>
<clipPath id="clip0">
<rect width="135" height="34" fill="white"/>
</clipPath>
</defs>
</svg>
