<svg width="20" height="20" viewBox="0 0 20 20" fill="none" xmlns="http://www.w3.org/2000/svg">
<path d="M3.21484 6.19157H4.35938V7.32782H3.21484V6.19157Z" fill="white"/>
<path d="M5.94922 4.83428H7.09375V5.97053H5.94922V4.83428Z" fill="white"/>
<path d="M8.11328 6.53671H9.25781V7.67296H8.11328V6.53671Z" fill="white"/>
<path d="M10.5625 4.95062H11.707V6.08687H10.5625V4.95062Z" fill="white"/>
<path d="M13.0742 6.75776H14.2187V7.894H13.0742V6.75776Z" fill="white"/>
<path d="M15.9648 5.96665H17.1094V7.1029H15.9648V5.96665Z" fill="white"/>
<path d="M18.1328 13.4046V11.9504H19.1797V9.56541H19.9922V8.51448C19.9922 5.47415 17.5 3 14.4375 3H5.55859C2.49219 3 0 5.47415 0 8.51836V9.56929H0.8125V11.9542H1.85937V13.4085H0V15.8322C0 17.0305 0.980469 18.0039 2.1875 18.0039H17.8125C19.0195 18.0039 20 17.0305 20 15.8322V13.4085H18.1328V13.4046ZM5.55859 4.16339H14.4375C16.8164 4.16339 18.7578 6.05584 18.8203 8.40202H1.17578C1.23438 6.05584 3.17969 4.16339 5.55859 4.16339ZM1.98437 10.787V9.56929H18.0078V10.787H1.98437ZM3.03125 11.9504H16.9609V13.4046H3.03125V11.9504ZM18.8281 15.8283C18.8281 16.3829 18.3711 16.8366 17.8125 16.8366H2.1875C1.62891 16.8366 1.17188 16.3829 1.17188 15.8283V14.568H18.8281V15.8283Z" fill="white"/>
</svg>
