<svg width="21" height="20" viewBox="0 0 21 20" fill="none" xmlns="http://www.w3.org/2000/svg">
<path d="M10.5013 9.49561C11.8879 9.49561 13.0148 8.32162 13.0148 6.87698C13.0148 5.43234 11.8879 4.25835 10.5013 4.25835C9.11465 4.25835 7.98779 5.43234 7.98779 6.87698C7.98779 8.32162 9.11465 9.49561 10.5013 9.49561ZM10.5013 5.55536C11.1997 5.55536 11.7698 6.14587 11.7698 6.87698C11.7698 7.60457 11.203 8.1986 10.5013 8.1986C9.80291 8.1986 9.23273 7.60809 9.23273 6.87698C9.23273 6.14939 9.80291 5.55536 10.5013 5.55536Z" fill="white"/>
<path d="M17.9973 18.2759L17.3731 12.4974C17.3394 12.1705 17.0695 11.9209 16.7523 11.9209H14.9406C17.1099 9.3761 17.056 5.39367 14.7719 2.92267C13.6282 1.6819 12.1099 1 10.5006 1C8.89131 1 7.3731 1.6819 6.22937 2.91916C3.94529 5.39016 3.89131 9.37258 6.06068 11.9174H4.24556C3.92843 11.9174 3.66189 12.167 3.62478 12.4938L3.004 18.2759C2.98376 18.4587 3.04111 18.6415 3.15919 18.7821C3.27728 18.9192 3.44597 19 3.62478 19H17.3765C17.5553 19 17.724 18.9227 17.8421 18.7821C17.9601 18.6415 18.0141 18.4587 17.9973 18.2759ZM7.12681 3.81898C8.03436 2.83831 9.23207 2.29701 10.5006 2.29701C11.7692 2.29701 12.9669 2.83831 13.8744 3.81898C15.757 5.85765 15.757 9.17223 13.8744 11.2074L10.5006 14.8735L7.12681 11.2074C5.24422 9.17223 5.24422 5.85765 7.12681 3.81898ZM4.31979 17.6995L4.80224 13.2179H7.24489L10.0485 16.2654C10.1666 16.3919 10.3286 16.4657 10.4973 16.4657C10.6659 16.4657 10.8313 16.3919 10.946 16.2654L13.7496 13.2179H16.1923L16.6747 17.6995H4.31979Z" fill="white"/>
</svg>
