<svg width="21" height="20" viewBox="0 0 21 20" fill="none" xmlns="http://www.w3.org/2000/svg">
<g clip-path="url(#clip0)">
<path d="M15.8607 12.5451C14.4006 12.5451 13.2152 13.7704 13.2152 15.2704C13.2152 16.7704 14.4047 17.9958 15.8607 17.9958C17.3209 17.9958 18.5063 16.7704 18.5063 15.2704C18.5063 13.7704 17.3209 12.5451 15.8607 12.5451ZM15.8607 16.6352C15.1307 16.6352 14.5359 16.0225 14.5359 15.2704C14.5359 14.5183 15.1307 13.9056 15.8607 13.9056C16.5908 13.9056 17.1856 14.5183 17.1856 15.2704C17.1856 16.0225 16.5908 16.6352 15.8607 16.6352Z" fill="white"/>
<path d="M6.8168 12.5451C5.35665 12.5451 4.1713 13.7704 4.1713 15.2704C4.1713 16.7704 5.36075 17.9958 6.8168 17.9958C8.27286 17.9958 9.46231 16.7704 9.46231 15.2704C9.46231 13.7704 8.27696 12.5451 6.8168 12.5451ZM6.8168 16.6352C6.08672 16.6352 5.492 16.0225 5.492 15.2704C5.492 14.5183 6.08672 13.9056 6.8168 13.9056C7.54688 13.9056 8.14161 14.5183 8.14161 15.2704C8.14161 16.0225 7.54688 16.6352 6.8168 16.6352Z" fill="white"/>
<path d="M17.6408 4.74084C17.5301 4.51268 17.3004 4.36479 17.0502 4.36479H13.5639V5.72958H16.64L18.4406 9.42253L19.6219 8.80986L17.6408 4.74084Z" fill="white"/>
<path d="M13.8756 14.6113H8.86758V15.9761H13.8756V14.6113Z" fill="white"/>
<path d="M4.83165 14.6113H2.53477C2.16973 14.6113 1.87442 14.9155 1.87442 15.2915C1.87442 15.6676 2.16973 15.9718 2.53477 15.9718H4.82755C5.19259 15.9718 5.4879 15.6676 5.4879 15.2915C5.492 14.9155 5.19669 14.6113 4.83165 14.6113Z" fill="white"/>
<path d="M20.8606 10.4451L19.5604 8.7169C19.4373 8.55211 19.2404 8.45493 19.0395 8.45493H14.2283V3.68028C14.2283 3.30423 13.933 3 13.568 3H2.53477C2.16973 3 1.87442 3.30423 1.87442 3.68028C1.87442 4.05634 2.16973 4.36056 2.53477 4.36056H12.9035V9.13099C12.9035 9.50704 13.1988 9.81127 13.5639 9.81127H18.7113L19.6752 11.0915V14.607H17.8459C17.4809 14.607 17.1856 14.9113 17.1856 15.2873C17.1856 15.6634 17.4809 15.9676 17.8459 15.9676H20.3397C20.7047 15.9676 21 15.6634 21 15.2873V10.8634C21 10.7113 20.9508 10.5634 20.8606 10.4451Z" fill="white"/>
<path d="M4.78654 11.1592H1.74318C1.37814 11.1592 1.08282 11.4634 1.08282 11.8394C1.08282 12.2155 1.37814 12.5197 1.74318 12.5197H4.78654C5.15158 12.5197 5.44689 12.2155 5.44689 11.8394C5.44689 11.4634 5.15158 11.1592 4.78654 11.1592Z" fill="white"/>
<path d="M6.3082 8.47606H0.660352C0.295313 8.47606 0 8.78028 0 9.15634C0 9.53239 0.295313 9.83662 0.660352 9.83662H6.3082C6.67324 9.83662 6.96855 9.53239 6.96855 9.15634C6.96855 8.78028 6.67324 8.47606 6.3082 8.47606Z" fill="white"/>
<path d="M7.39103 5.79718H1.74318C1.37814 5.79718 1.08282 6.10141 1.08282 6.47747C1.08282 6.85352 1.37814 7.15775 1.74318 7.15775H7.39103C7.75607 7.15775 8.05138 6.85352 8.05138 6.47747C8.05138 6.10141 7.75607 5.79718 7.39103 5.79718Z" fill="white"/>
</g>
<defs>
<clipPath id="clip0">
<rect width="21" height="20" fill="white"/>
</clipPath>
</defs>
</svg>
