<svg width="20" height="20" viewBox="0 0 20 20" fill="none" xmlns="http://www.w3.org/2000/svg">
<path d="M18.0684 15.3559L16.7116 7.7707C16.7077 7.74844 16.7038 7.72988 16.6999 7.70391C16.6217 7.08789 16.3206 6.52012 15.8592 6.1082C15.3783 5.67773 14.7488 5.44395 14.0919 5.44395C13.2708 5.44395 12.5357 5.80391 12.0547 6.36426C11.9335 6.21953 11.7928 6.08965 11.6403 5.97832C12.1603 5.54785 12.4848 4.91699 12.4848 4.21562C12.4848 3.14316 11.7224 2.2377 10.6862 1.96309C10.8739 1.46953 11.3705 1.11328 11.957 1.11328V0C10.7331 0 9.71261 0.83125 9.48192 1.92969C8.37537 2.16348 7.54643 3.09863 7.54643 4.21562C7.54643 4.91699 7.87488 5.54785 8.39101 5.97832C8.23852 6.09336 8.09775 6.22324 7.97654 6.36426C7.4956 5.80391 6.76051 5.44395 5.93939 5.44395C5.27859 5.44395 4.64516 5.67773 4.16031 6.10449C3.68328 6.52383 3.38612 7.0916 3.32747 7.70391C3.27273 8.01563 2.45552 12.5838 1.95894 15.3559H0V17.0777C0 18.1391 0.907136 19 2.02542 19H17.9707C19.089 19 19.9961 18.1391 19.9961 17.0777V15.3559H18.0684ZM14.088 6.55723C14.8309 6.55723 15.4409 7.09902 15.5347 7.84121L15.5738 8.13809L15.5894 8.14551C15.7967 9.29219 16.5826 13.6822 16.8798 15.3559H12.6373V7.93398C12.6373 7.17695 13.2864 6.55723 14.088 6.55723ZM8.71945 4.21562C8.71945 3.53652 9.30205 2.9873 10.0137 2.9873C10.7253 2.9873 11.3079 3.54023 11.3079 4.21562C11.3079 4.89102 10.7253 5.44395 10.0137 5.44395C9.30205 5.44395 8.71945 4.89473 8.71945 4.21562ZM11.4643 7.92656V15.3559H8.56696V7.93398C8.56696 7.17695 9.21603 6.55723 10.0176 6.55723C10.8113 6.55723 11.4604 7.17324 11.4643 7.92656ZM4.50049 7.81895C4.56305 7.11387 5.19648 6.55723 5.9433 6.55723C6.74096 6.55723 7.39394 7.17324 7.39394 7.93398V15.3559H3.15152C4.49267 7.89316 4.49658 7.84863 4.50049 7.81895ZM18.827 17.0777C18.827 17.523 18.4438 17.8867 17.9746 17.8867H2.02542C1.55621 17.8867 1.17302 17.523 1.17302 17.0777V16.4691H18.827V17.0777Z" fill="white"/>
</svg>
