<svg width="20" height="20" viewBox="0 0 20 20" fill="none" xmlns="http://www.w3.org/2000/svg">
<g clip-path="url(#clip0)">
<path d="M18.7734 14.2308C18.6367 13.01 18.0781 11.8808 17.1758 11.0033C16.1328 9.99237 14.7461 9.43157 13.2773 9.43157C11.8047 9.43157 10.4219 9.98855 9.37891 11.0033C8.47656 11.8808 7.91797 13.01 7.78125 14.2308H7.10938V5.56319H18.3086V4.41869H7.10938V3.14449H18.3086V2H0.585938V3.14449H1.64453V4.41869H0.585938V5.56319H1.64453V14.227H0V16.2489C0 17.2141 0.804688 18 1.79297 18H18.2109C19.1992 18 20.0039 17.2141 20.0039 16.2489V14.227H18.7734V14.2308ZM13.2734 10.5761C15.4609 10.5761 17.2891 12.1707 17.5898 14.2308H16.5313C16.4102 13.5899 16.0898 12.9986 15.6055 12.5293C14.9805 11.9266 14.1523 11.5908 13.2734 11.5908C12.3945 11.5908 11.5664 11.9227 10.9414 12.5293C10.457 12.9986 10.1367 13.5861 10.0156 14.2308H8.95703C9.26172 12.1669 11.0859 10.5761 13.2734 10.5761ZM15.3242 14.2308H11.2227C11.4883 13.3686 12.3086 12.7392 13.2734 12.7392C14.2383 12.7353 15.0586 13.3686 15.3242 14.2308ZM5.9375 14.2308H4.96094V3.14449H5.9375V14.2308ZM2.81641 3.14449H3.79297V14.2308H2.81641V3.14449ZM18.8281 16.2527C18.8281 16.5846 18.5508 16.8593 18.207 16.8593H1.79297C1.45313 16.8593 1.17188 16.5885 1.17188 16.2527V15.3753H18.8281V16.2527Z" fill="white"/>
</g>
<defs>
<clipPath id="clip0">
<rect width="20" height="20" fill="white"/>
</clipPath>
</defs>
</svg>
