<svg width="20" height="20" viewBox="0 0 20 20" fill="none" xmlns="http://www.w3.org/2000/svg">
<path d="M6.8828 5.21339C6.81639 5.38272 6.68358 5.49299 6.68358 5.49299L6.69139 5.48905L7.40233 6.42629C7.9453 6.00886 8.47264 4.98499 7.70311 3.89023C7.47655 3.57125 7.51951 3.35466 7.5703 3.22077C7.64061 3.03175 7.78123 2.90967 7.78514 2.90573L7.77733 2.90967L7.03514 2C6.49998 2.44105 5.98045 3.49249 6.74608 4.57544C6.96873 4.89048 6.93358 5.09131 6.8828 5.21339Z" fill="white"/>
<path d="M9.22264 5.24095C9.15624 5.41028 9.02342 5.52055 9.02342 5.52448L9.03123 5.52055L9.74217 6.45779C10.2851 6.04036 10.8125 5.01649 10.043 3.92173C9.81639 3.60275 9.85936 3.38616 9.91014 3.25227C9.98046 3.06325 10.1211 2.94117 10.125 2.93723L10.1172 2.94117L9.37499 2.02756C8.83983 2.46861 8.3203 3.52005 9.08592 4.603C9.30858 4.91804 9.27342 5.11887 9.22264 5.24095Z" fill="white"/>
<path d="M17.6172 14.4952C17.5156 13.7706 17.2422 13.0893 16.8125 12.5026L17.6445 11.4511C18.3438 11.6559 19.1172 11.4275 19.5938 10.8211C20.2305 10.0177 20.0977 8.84814 19.3047 8.20625C19.0234 7.97785 18.6836 7.84396 18.3281 7.80851C18.2148 7.46985 18.0117 7.16269 17.7305 6.93822C17.3437 6.62712 16.8633 6.48929 16.375 6.54442C15.8867 6.59955 15.4453 6.84371 15.1367 7.23357C14.6602 7.83608 14.6055 8.6473 14.957 9.2892L13.9062 10.6124C13.2852 9.81295 12.4961 9.15137 11.6094 8.68275C10.6133 8.15899 9.48828 7.8794 8.35547 7.8794C5.74609 7.8794 3.46094 9.3207 2.24609 11.4511H0V12.3844C0 13.1839 0.285156 13.9203 0.761719 14.4913H0V17.9961H20V14.4913H17.6172V14.4952ZM5.4375 14.4952C5.06641 14.4952 4.76953 14.192 4.76953 13.8218C4.76953 13.4516 5.07031 13.1484 5.4375 13.1484C5.80469 13.1484 6.10547 13.4516 6.10547 13.8218C6.10938 14.192 5.80859 14.4952 5.4375 14.4952ZM10.1758 14.4952C10.4609 13.0185 11.7578 11.8961 13.3047 11.8961C14.8516 11.8961 16.1484 13.0185 16.4336 14.4952H10.1758ZM16.4883 9.25375L16.1094 8.87965C15.8594 8.63549 15.8359 8.24563 16.0547 7.96997C16.168 7.8282 16.3281 7.73763 16.5078 7.71794C16.6875 7.69825 16.8633 7.74944 17.0039 7.86365C17.1719 7.99754 17.2617 8.19837 17.2578 8.41496L17.2344 9.19862L17.9883 9.00172C18.1953 8.94659 18.4102 8.99385 18.5781 9.12774C18.8672 9.36008 18.9141 9.78932 18.6836 10.0807C18.4648 10.3564 18.082 10.4194 17.793 10.2264L17.3477 9.93502L15.9922 11.648C15.6992 11.4157 15.3828 11.2227 15.0469 11.077L16.4883 9.25375ZM8.35938 9.06473C9.91797 9.06473 11.4062 9.69481 12.5 10.7896C11.6445 10.951 10.8594 11.3645 10.2305 11.9946C9.54687 12.6798 9.11719 13.5501 8.98828 14.4952H7.15625C7.23828 14.2865 7.28125 14.0581 7.28125 13.8218C7.28125 12.7979 6.45703 11.967 5.44141 11.967C5.11328 11.967 4.80469 12.0537 4.53516 12.2072C4.23828 11.9591 3.89453 11.7662 3.52344 11.6362C4.58203 10.0847 6.35547 9.06473 8.35938 9.06473ZM1.1875 12.6365H2.46484C2.94922 12.6365 3.39453 12.8058 3.75 13.0854C3.65234 13.3099 3.59766 13.558 3.59766 13.8218C3.59766 14.0581 3.64453 14.2865 3.72266 14.4952H3.26172C2.19141 14.4952 1.30859 13.68 1.1875 12.6365ZM18.8281 16.8186H1.17188V15.6766H18.8281V16.8186Z" fill="white"/>
</svg>
