<svg width="20" height="20" viewBox="0 0 20 20" fill="none" xmlns="http://www.w3.org/2000/svg">
<path d="M18.1484 7.99531C18.2305 7.76475 18.2773 7.51856 18.2891 7.26846C18.3359 6.04142 17.4766 4.98632 16.3086 4.75186C15.9648 3.83744 15.0937 3.18875 14.0937 3.14967C13.9102 3.14185 13.7266 3.15748 13.5508 3.18875C13.1172 2.34076 12.3633 1.61 11.3047 1.01602C10.1367 0.359515 9.01172 0.10551 8.96094 0.0937866L8.54688 0L8.33203 0.367331C8.29297 0.433763 7.52344 1.75068 7.27734 3.34506C7.12891 3.31379 6.97266 3.29035 6.81641 3.28644C5.73047 3.24345 4.73047 3.88042 4.29297 4.84955C3.60938 4.9238 2.98438 5.25596 2.53516 5.79914L2.51953 5.81868C2.15625 6.26417 1.95313 6.80735 1.92969 7.3857C1.92188 7.59281 1.9375 7.79601 1.97656 7.99531H0V8.58148C0 10.465 0.527344 12.2978 1.51953 13.8843C2.42188 15.3263 3.67578 16.5104 5.15625 17.3349V20H14.8438V17.3349C16.3242 16.5143 17.5781 15.3263 18.4805 13.8843C19.4766 12.2978 20 10.4611 20 8.58148V7.99531H18.1484V7.99531ZM14.0469 4.31809C14.6523 4.34154 15.168 4.79093 15.2734 5.38882L15.3555 5.86557L15.8398 5.87339H15.8633H15.8672C16.582 5.90074 17.1406 6.50645 17.1133 7.22157C17.1016 7.50684 17 7.77648 16.8203 7.99531H11.3477C11.3594 7.91325 11.3672 7.83509 11.3672 7.75303C11.3867 7.22939 11.2578 6.72138 10.9922 6.2837C11.0078 6.26417 11.0195 6.24463 11.0352 6.22509L11.0469 6.21336C11.3086 5.89293 11.6914 5.71708 12.1016 5.73271L12.6133 5.77179L12.7344 5.29504C12.8906 4.70496 13.4414 4.29855 14.0469 4.31809ZM9.13672 1.356C9.52344 1.47714 10.1211 1.69207 10.7305 2.03595C11.5625 2.50488 12.1484 3.05197 12.4805 3.67331C12.1758 3.91168 11.9258 4.21649 11.7578 4.57601C11.5742 4.59945 11.3984 4.64244 11.2266 4.70496L10.5469 3.13794L9.47266 3.60297L10.2344 5.36147C10.2148 5.38492 10.1953 5.40445 10.1758 5.4279C9.88281 5.23642 9.55859 5.10356 9.21094 5.03712C9.04688 4.57991 8.75781 4.18523 8.39063 3.88433C8.48047 2.85268 8.88281 1.87573 9.13672 1.356ZM3.10156 7.42868C3.11328 7.11215 3.22266 6.81516 3.41797 6.56897L3.42969 6.55334C3.72656 6.18601 4.16797 5.98671 4.63672 6.00625L5.15234 6.04533L5.27344 5.56858C5.44531 4.89644 6.07422 4.43142 6.76562 4.45487C7.46094 4.48222 8.05078 4.99805 8.16797 5.678L8.25 6.15475L8.73438 6.16256C8.74219 6.16256 8.75391 6.16256 8.76172 6.16256H8.76953C9.16406 6.17819 9.53125 6.34623 9.80078 6.63931C10.0703 6.92849 10.2109 7.30754 10.1953 7.70614C10.1914 7.80383 10.1758 7.90152 10.1562 7.99531H3.1875C3.12109 7.81165 3.09375 7.62407 3.10156 7.42868ZM18.8086 9.16764C18.7813 9.59359 18.7227 10.0156 18.6367 10.4299H1.36328C1.27734 10.0195 1.21875 9.5975 1.19141 9.16764H18.8086V9.16764ZM6.32812 18.8277V17.5694H13.6719V18.8277H6.32812ZM14.1172 16.3931H5.88281C3.89844 15.3458 2.42969 13.6303 1.69531 11.5983H18.2969C17.5664 13.6303 16.0977 15.3497 14.1172 16.3931Z" fill="white"/>
</svg>
