<svg width="20" height="20" viewBox="0 0 20 20" fill="none" xmlns="http://www.w3.org/2000/svg">
<path d="M8.80467 4.23311C8.73827 4.40348 8.60545 4.51442 8.60545 4.51838L8.61327 4.51442L9.32421 5.45741C9.86718 5.03742 10.3945 4.00726 9.62499 2.90579C9.39842 2.58486 9.44139 2.36694 9.49218 2.23223C9.56249 2.04204 9.70311 1.91922 9.70702 1.91525L9.69921 1.91922L8.95702 1C8.42186 1.44376 7.90233 2.50165 8.66795 3.59124C8.89061 3.90821 8.85545 4.11028 8.80467 4.23311Z" fill="white"/>
<path d="M11.1445 4.26084C11.0781 4.43122 10.9453 4.54216 10.9453 4.54612L10.9531 4.54216L11.664 5.48514C12.207 5.06516 12.7344 4.035 11.9648 2.93353C11.7383 2.61259 11.7812 2.39467 11.832 2.25996C11.9023 2.06978 12.043 1.94695 12.0469 1.94299L12.039 1.94695L11.2969 1.02774C10.7617 1.4715 10.2422 2.52939 11.0078 3.61898C11.2305 3.93595 11.1953 4.13802 11.1445 4.26084Z" fill="white"/>
<path d="M20 12.0425H19.0898C18.4805 8.88069 15.7305 6.48756 12.4414 6.48756H7.5625C3.82422 6.48756 0.785156 9.57011 0.785156 13.3619V15.4777H0V19.004H20V15.4777H19.2383C19.7109 14.9031 20 14.1622 20 13.3579V12.0425ZM13.1445 14.6416C13.1445 14.182 13.5156 13.8056 13.9688 13.8056C14.4219 13.8056 14.793 14.182 14.793 14.6416C14.793 15.1012 14.4258 15.4777 13.9688 15.4777C13.5156 15.4737 13.1445 15.1012 13.1445 14.6416ZM15.7148 13.667C16.0664 13.3936 16.5039 13.2311 16.9805 13.2311H18.8281V13.3539C18.8281 14.5228 17.8906 15.4737 16.7383 15.4737H15.7852C15.8984 15.2201 15.9648 14.9348 15.9648 14.6377C15.9609 14.289 15.8711 13.9562 15.7148 13.667ZM1.95703 13.3619C1.95703 10.2278 4.47266 7.67621 7.5625 7.67621H7.62109C6.44141 8.65089 5.68359 10.1367 5.68359 11.7968H6.85547C6.85547 9.52652 8.67578 7.67621 10.918 7.67621H11.7969C10.6016 8.66278 9.86328 10.1644 9.86328 11.7968H11.0352C11.0352 9.99802 12.1953 8.40128 13.875 7.86639C15.8594 8.40128 17.4141 10.0139 17.8906 12.0425H16.9805C16.1758 12.0425 15.4375 12.3396 14.8672 12.8349C14.5977 12.6962 14.293 12.617 13.9688 12.617C12.8672 12.617 11.9727 13.5243 11.9727 14.6416C11.9727 14.9388 12.0352 15.2201 12.1523 15.4777H1.95703V13.3619V13.3619ZM18.8281 17.8113H1.17188V16.6623H18.8281V17.8113Z" fill="white"/>
</svg>
