<svg width="20" height="20" viewBox="0 0 20 20" fill="none" xmlns="http://www.w3.org/2000/svg">
<g clip-path="url(#clip0)">
<path d="M5.58204 3.49101C5.50391 3.69038 5.34766 3.81939 5.34375 3.81939L5.35157 3.81548L6.06251 4.7459C6.64063 4.30023 7.20313 3.22127 6.37891 2.05629C6.11329 1.681 6.16407 1.4269 6.22657 1.26661C6.31251 1.04769 6.47657 0.906959 6.47657 0.903049L6.47266 0.906959L5.73438 0C5.16407 0.469117 4.60938 1.58327 5.42579 2.7326C5.6875 3.10399 5.64063 3.34246 5.58204 3.49101Z" fill="white"/>
<path d="M8.4375 3.54574C8.35938 3.74512 8.20313 3.87412 8.19922 3.87412L8.20703 3.87021L8.91797 4.80063C9.49609 4.35497 10.0586 3.276 9.23438 2.11103C8.96875 1.73573 9.01953 1.48163 9.08203 1.32135C9.16797 1.10243 9.33203 0.961692 9.33203 0.957783L9.32813 0.961692L8.58594 0.0547333C8.01563 0.52385 7.46094 1.638 8.27735 2.78734C8.54297 3.15872 8.4961 3.39719 8.4375 3.54574Z" fill="white"/>
<path d="M15.3906 16.3448C16.1563 15.7623 16.8281 15.0547 17.375 14.2455C18.375 12.7678 18.9062 11.0399 18.9062 9.24941V6.50508H17.1133L18.5742 5.043C19.2969 4.31978 19.2969 3.14308 18.5742 2.42377C17.8516 1.70446 16.6758 1.70055 15.957 2.42377L11.875 6.50508H1.09375V9.24941C1.09375 11.0399 1.62109 12.7678 2.625 14.2455C3.17578 15.0547 3.84375 15.7623 4.60938 16.3448H0V17.9711C0 19.093 0.910156 20.0039 2.03125 20.0039H17.9688C19.0898 20.0039 20 19.093 20 17.9711V16.3448H15.3906ZM16.7852 3.24863C16.9141 3.11963 17.0859 3.04926 17.2656 3.04926C17.4453 3.04926 17.6172 3.11963 17.7461 3.24863C18.0117 3.51446 18.0117 3.94449 17.7461 4.21032L15.457 6.50117H13.5352L16.7852 3.24863ZM17.7344 7.67787V9.13604H2.26562V7.67787H17.7344V7.67787ZM2.33594 10.3049H17.6602C17.2969 12.9593 15.5859 15.2541 13.0898 16.3409H6.90625C4.41016 15.2541 2.69922 12.9593 2.33594 10.3049ZM18.8281 17.9672C18.8281 18.4402 18.4414 18.8272 17.9688 18.8272H2.03125C1.55859 18.8272 1.17188 18.4402 1.17188 17.9672V17.5137H18.8281V17.9672Z" fill="white"/>
</g>
<defs>
<clipPath id="clip0">
<rect width="20" height="20" fill="white"/>
</clipPath>
</defs>
</svg>
